# xmcd
#
# Track frame offsets: 
#        150
#        17495
#        36350
#        57655
#        76122
#        91357
#        109450
#        122550
#        140777
#        165000
#        179022
#        197725
#        212675
#        227462
#        241110
#        255945
#        271335
#
# Disc length: 3804 seconds
#
# Revision: 0
# Processed by: cddbd v1.5.2PL0 Copyright (c) Steve Scherf et al.
# Submitted via: ExactAudioCopy v0.95b2
#
DISCID=e00eda11
DTITLE=Tyrone Davis - I Had It All The time - Without You In My Life
DYEAR=1973
DGENRE=R&B
TTITLE0=Your Love Keeps Haunting Me
TTITLE1=Was It Just A Feeling
TTITLE2=This Time
TTITLE3=How Can I Forget You
TTITLE4=After All This Time
TTITLE5=Was I Just A Fool
TTITLE6=Come And Get This Ring
TTITLE7=You Wouldn't Believe
TTITLE8=I Had It All The Time
TTITLE9=Wrapped Up In Your Warm And Tender Love
TTITLE10=There It Is
TTITLE11=Without You In My Life
TTITLE12=I Got A Sure Thing
TTITLE13=If You Had A Change In Mind
TTITLE14=True Love Is Hard To Find
TTITLE15=I'm Just Your Man
TTITLE16=Honey You Are My Sunshine
EXTD=
EXTT0=
EXTT1=
EXTT2=
EXTT3=
EXTT4=
EXTT5=
EXTT6=
EXTT7=
EXTT8=
EXTT9=
EXTT10=
EXTT11=
EXTT12=
EXTT13=
EXTT14=
EXTT15=
EXTT16=
PLAYORDER=
